<?xml version="1.0" encoding="UTF-8" standalone="no"?>
<svg
   viewBox="0 0 64 64"
   width="64"
   height="64"
   fill="#ec4899"
   version="1.1"
   id="svg1"
   sodipodi:docname="key-icon.svg"
   inkscape:version="1.3.2 (091e20ef0f, 2023-11-25, custom)"
   xmlns:inkscape="http://www.inkscape.org/namespaces/inkscape"
   xmlns:sodipodi="http://sodipodi.sourceforge.net/DTD/sodipodi-0.dtd"
   xmlns="http://www.w3.org/2000/svg"
   xmlns:svg="http://www.w3.org/2000/svg">
  <defs
     id="defs1" />
  <sodipodi:namedview
     id="namedview1"
     pagecolor="#ffffff"
     bordercolor="#000000"
     borderopacity="0.25"
     inkscape:showpageshadow="2"
     inkscape:pageopacity="0.0"
     inkscape:pagecheckerboard="0"
     inkscape:deskcolor="#d1d1d1"
     inkscape:zoom="9.2476309"
     inkscape:cx="15.19308"
     inkscape:cy="29.791414"
     inkscape:window-width="1920"
     inkscape:window-height="1043"
     inkscape:window-x="0"
     inkscape:window-y="0"
     inkscape:window-maximized="1"
     inkscape:current-layer="svg1" />
  <path
     d="m 37.028853,31.41507 2.159,-2.158 -3.314,-3.314 -2.158,2.159 -3.466,-3.466 a 7.895,7.895 0 1 0 -8.126,-12.478 6.319,6.319 0 1 0 -8.77,9 7.894,7.894 0 1 0 12.842,7.863 l 3.3,3.3 -1.826,1.825 3.314,2.924 1.826,-1.826 8.754,8.754 -4.807,4.806 1.65,1.65 a 2.457,2.457 0 1 1 3.382,3.382 l 1.979,1.979 4.807,-4.807 2.347,2.348 4.219,-4.219 z m -8.65,-18.3 a 3.852,3.852 0 1 1 -3.852,3.852 3.851,3.851 0 0 1 3.852,-3.852 z m -2.277,11.415 -0.071,0.071 c -0.012,-0.035 -0.026,-0.069 -0.038,-0.1 z m -8.848,-11.427 a 3.083,3.083 0 1 1 -3.082,3.083 3.083,3.083 0 0 1 3.082,-3.083 z m 1.288,18.978 a 3.852,3.852 0 1 1 3.852,-3.852 3.851,3.851 0 0 1 -3.852,3.852 z"
     id="path1" />
</svg>
